HIERARCHY
ROOT Hips
{
	OFFSET -0.001795 -0.223333 0.028219
	CHANNELS 6 Xposition Yposition Zposition Zrotation Yrotation Xrotation 
	JOINT LeftUpLeg
	{
		OFFSET 0.069520 -0.091406 -0.006815
		CHANNELS 3 Zrotation Yrotation Xrotation
		JOINT LeftLeg
		{
			OFFSET 0.034277 -0.375199 -0.004496
			CHANNELS 3 Zrotation Yrotation Xrotation
			JOINT LeftFoot
			{
				OFFSET -0.013596 -0.397961 -0.043693
				CHANNELS 3 Zrotation Yrotation Xrotation
				JOINT LeftToe
				{
					OFFSET 0.026358 -0.055791 0.119288
					CHANNELS 3 Zrotation Yrotation Xrotation
					End Site
					{
						OFFSET 0.000000 0.000000 0.000000
					}
				}
			}
		}
	}
	JOINT RightUpLeg
	{
		OFFSET -0.067670 -0.090522 -0.004320
		CHANNELS 3 Zrotation Yrotation Xrotation
		JOINT RightLeg
		{
			OFFSET -0.038290 -0.382569 -0.008850
			CHANNELS 3 Zrotation Yrotation Xrotation
			JOINT RightFoot
			{
				OFFSET 0.015774 -0.398415 -0.042312
				CHANNELS 3 Zrotation Yrotation Xrotation
				JOINT RightToe
				{
					OFFSET -0.025372 -0.048144 0.123348
					CHANNELS 3 Zrotation Yrotation Xrotation
					End Site
					{
						OFFSET 0.000000 0.000000 0.000000
					}
				}
			}
		}
	}
	JOINT Spine
	{
		OFFSET -0.002533 0.108963 -0.026696
		CHANNELS 3 Zrotation Yrotation Xrotation
		JOINT Spine1
		{
			OFFSET 0.005487 0.135180 0.001092
			CHANNELS 3 Zrotation Yrotation Xrotation
			JOINT Spine2
			{
				OFFSET 0.001457 0.052922 0.025425
				CHANNELS 3 Zrotation Yrotation Xrotation
				JOINT Neck
				{
					OFFSET -0.002778 0.213870 -0.042857
					CHANNELS 3 Zrotation Yrotation Xrotation
					JOINT Head
					{
						OFFSET 0.005152 0.064970 0.051349
						CHANNELS 3 Zrotation Yrotation Xrotation
						End Site
						{
							OFFSET 0.000000 0.000000 0.000000
						}
					}
				}
				JOINT LeftShoulder
				{
					OFFSET 0.078845 0.121749 -0.034090
					CHANNELS 3 Zrotation Yrotation Xrotation
					JOINT LeftArm
					{
						OFFSET 0.090977 0.030469 -0.008868
						CHANNELS 3 Zrotation Yrotation Xrotation
						JOINT LeftForeArm
						{
							OFFSET 0.259612 -0.012772 -0.027456
							CHANNELS 3 Zrotation Yrotation Xrotation
							JOINT LeftHand
							{
								OFFSET 0.249234 0.008986 -0.001171
								CHANNELS 3 Zrotation Yrotation Xrotation
								End Site
								{
									OFFSET 0.000000 0.000000 0.000000
								}
							}
						}
					}
				}
				JOINT RightShoulder
				{
					OFFSET -0.081759 0.118833 -0.038615
					CHANNELS 3 Zrotation Yrotation Xrotation
					JOINT RightArm
					{
						OFFSET -0.096012 0.032551 -0.009143
						CHANNELS 3 Zrotation Yrotation Xrotation
						JOINT RightForeArm
						{
							OFFSET -0.253742 -0.013329 -0.021401
							CHANNELS 3 Zrotation Yrotation Xrotation
							JOINT RightHand
							{
								OFFSET -0.255298 0.007772 -0.005559
								CHANNELS 3 Zrotation Yrotation Xrotation
								End Site
								{
									OFFSET 0.000000 0.000000 0.000000
								}
							}
						}
					}
				}
			}
		}
	}
}
MOTION
Frames: 15
Frame Time: 0.050000
0.000000 0.957850 0.000000 0.657113 21.456749 4.530359 1.405079 -0.387172 -4.455904 0.795962 -0.114198 1.088816 -4.786933 -3.863385 7.205379 0.000000 0.000000 0.000000 -2.721740 0.651276 -11.693251 -2.304610 0.521451 6.565855 -2.143592 -5.873708 8.660703 0.000000 0.000000 0.000000 0.418663 0.053163 -2.097683 2.655086 -0.848439 -3.793366 -4.308619 0.665674 7.431609 5.820896 -3.710453 -3.818942 0.000000 0.000000 0.000000 -4.336879 -9.903320 2.323123 -65.065519 -6.496442 -6.132203 -6.879144 -19.821244 1.506299 0.000000 0.000000 0.000000 7.135375 4.480927 2.602544 70.551366 2.632628 -3.336795 1.227367 22.064800 1.272353 0.000000 0.000000 0.000000 
0.001885 0.955548 0.001722 0.465848 20.458258 4.997731 1.567525 -0.370305 -4.176260 1.656584 -0.130318 0.084776 -3.807605 -2.794521 6.306260 0.000000 0.000000 0.000000 -3.203376 0.627955 -12.140635 -1.166506 0.311340 7.311300 -1.527215 -4.519383 6.770402 0.000000 0.000000 0.000000 0.843140 0.071345 -2.782565 1.536335 -0.387962 -3.579646 -4.459045 2.053781 6.803596 5.664005 -3.811042 -2.789776 0.000000 0.000000 0.000000 -3.092967 -10.904261 2.789391 -66.892708 -8.107239 -5.654185 -5.242482 -18.421118 1.131751 0.000000 0.000000 0.000000 7.474100 4.248446 2.616430 70.238142 1.462688 -3.905889 3.552106 23.626879 1.846474 0.000000 0.000000 0.000000 
0.004271 0.954578 0.002426 0.644902 19.140882 4.989808 1.395713 -0.385501 -4.419670 1.634371 -0.187235 1.120480 -3.606293 -3.390596 5.135937 0.000000 0.000000 0.000000 -3.795175 0.577686 -12.096114 -0.495384 0.189641 7.934108 -0.460569 -2.172636 5.836290 0.000000 0.000000 0.000000 0.909236 0.059930 -2.336574 0.847027 0.039757 -5.210503 -4.522566 1.784850 8.528787 5.038283 -2.930074 -4.481936 0.000000 0.000000 0.000000 -1.833209 -10.853996 3.021104 -67.787889 -8.866294 -5.525249 -6.670446 -17.409586 1.333698 0.000000 0.000000 0.000000 7.047006 5.176606 2.950566 71.598780 1.901353 -3.934122 3.297022 24.365112 1.896202 0.000000 0.000000 0.000000 
0.007563 0.953512 0.002170 0.693914 18.162053 5.245620 0.901583 -0.437562 -5.128200 2.099050 -0.295282 2.154496 -3.036098 -3.286155 3.890268 0.000000 0.000000 0.000000 -3.829868 0.622097 -13.032135 -0.588440 0.223859 8.831166 0.524394 0.107342 5.077720 0.000000 0.000000 0.000000 0.287966 0.069187 -2.582301 0.779357 0.016837 -4.725466 -4.086200 1.393525 8.209687 5.339704 -3.622083 -2.789214 0.000000 0.000000 0.000000 -1.826586 -12.050059 3.467576 -69.046743 -8.690874 -5.569013 -6.367719 -18.049099 1.369853 0.000000 0.000000 0.000000 5.605553 5.520919 2.805629 72.838979 1.604036 -4.067835 2.729510 24.590849 1.763641 0.000000 0.000000 0.000000 
0.011196 0.953144 0.000795 0.547537 16.543652 4.784401 0.737455 -0.465972 -5.442264 1.590111 -0.325342 3.404475 -2.285291 -2.343905 3.268833 0.000000 0.000000 0.000000 -4.289406 0.626619 -14.305085 -0.437898 0.215516 11.242161 0.855068 0.903937 4.406616 0.000000 0.000000 0.000000 -0.158444 0.043070 -1.465069 1.064321 -0.071915 -5.357556 -4.238624 1.051662 8.952314 5.566534 -3.585303 -3.940822 0.000000 0.000000 0.000000 -1.327937 -12.281071 3.673577 -69.278695 -9.429405 -5.074389 -7.732106 -17.881502 1.618248 0.000000 0.000000 0.000000 5.245725 5.646657 2.719136 73.135772 1.800748 -4.208693 3.448771 25.884287 2.024933 0.000000 0.000000 0.000000 
0.015330 0.953608 -0.001509 0.045820 13.527459 4.731843 0.596450 -0.510830 -5.891044 2.272789 -0.471179 4.320486 -0.507920 0.617763 2.612080 0.000000 0.000000 0.000000 -4.194453 0.778597 -16.524598 -0.445305 0.287196 13.222375 1.877162 2.961377 4.660403 0.000000 0.000000 0.000000 -0.008995 0.025675 -0.854674 1.062429 -0.061838 -6.093928 -3.939563 0.327129 9.831332 5.740626 -3.610754 -5.001988 0.000000 0.000000 0.000000 -1.157725 -12.850429 4.014993 -69.796456 -10.367069 -4.205486 -9.711510 -17.839352 2.004581 0.000000 0.000000 0.000000 4.018557 6.061483 2.599232 73.898376 2.369313 -4.303573 3.162044 26.196768 1.939679 0.000000 0.000000 0.000000 
0.018980 0.954436 -0.004301 -0.456222 10.202113 4.819030 0.978557 -0.525592 -6.059773 1.539843 -0.371570 4.200145 0.894539 3.654908 3.380520 0.000000 0.000000 0.000000 -4.009535 0.999861 -19.199909 0.033621 0.271330 15.112787 2.162849 2.519927 6.821433 0.000000 0.000000 0.000000 0.122406 -0.012716 0.174266 1.275958 -0.180557 -6.429550 -4.073605 -0.020090 10.008830 6.170959 -3.766281 -6.465323 0.000000 0.000000 0.000000 -0.915308 -12.623504 4.068952 -69.911284 -11.114553 -3.353334 -11.248537 -18.528665 2.393224 0.000000 0.000000 0.000000 3.278295 5.979060 2.377198 74.062042 2.600793 -4.602115 3.860626 26.857126 2.094241 0.000000 0.000000 0.000000 
0.021913 0.955946 -0.006714 -1.110233 5.989207 4.926960 1.525843 -0.506182 -5.938458 1.217612 -0.321425 4.100976 2.922743 7.342962 3.274376 0.000000 0.000000 0.000000 -3.969008 1.298928 -22.048916 1.106433 0.159304 17.473815 1.890905 1.376211 7.230616 0.000000 0.000000 0.000000 0.476231 -0.071714 1.320909 1.348285 -0.267043 -6.639608 -4.006254 -0.959876 9.617149 7.483779 -4.704178 -7.747890 0.000000 0.000000 0.000000 -0.676729 -12.916141 4.333239 -69.551413 -12.642670 -1.670610 -12.609978 -18.735619 2.730725 0.000000 0.000000 0.000000 2.581218 6.537338 2.385570 74.104623 2.908715 -5.121099 3.869915 26.324753 1.921467 0.000000 0.000000 0.000000 
0.023309 0.958198 -0.007373 -1.757198 1.344291 5.089924 2.507840 -0.427368 -5.250383 -0.303054 -0.075709 3.324696 4.885926 11.341449 5.029359 0.000000 0.000000 0.000000 -4.072850 1.658045 -24.563912 1.866599 0.171153 18.462741 1.118639 -1.447306 8.934489 0.000000 0.000000 0.000000 0.962773 -0.149390 2.509335 1.723535 -0.447304 -7.701374 -3.895643 -1.126294 10.145087 8.539834 -5.344421 -9.551001 0.000000 0.000000 0.000000 -0.048803 -12.905498 4.441468 -70.111240 -13.935482 -0.301121 -12.544344 -19.508600 2.918967 0.000000 0.000000 0.000000 1.382863 6.304835 2.175010 75.064297 3.221807 -5.704268 4.435470 25.569207 1.878368 0.000000 0.000000 0.000000 
0.022621 0.959565 -0.005091 -2.039454 -3.108682 4.982337 2.358598 -0.308081 -3.726554 -0.266655 -0.028275 1.996816 7.198408 15.524962 6.266520 0.000000 0.000000 0.000000 -5.019523 1.865836 -26.241458 2.620203 0.185781 18.915071 -1.174974 -7.236936 10.592144 0.000000 0.000000 0.000000 1.287942 -0.206836 3.346449 1.853846 -0.572303 -7.884188 -3.603358 -1.679420 10.205657 9.758400 -6.287408 -10.335901 0.000000 0.000000 0.000000 0.832292 -13.389558 4.662735 -70.570585 -16.040108 1.828524 -12.650211 -19.761539 3.045322 0.000000 0.000000 0.000000 -0.381495 6.495367 2.214798 76.396575 3.222727 -6.726350 4.098079 24.275773 1.589623 0.000000 0.000000 0.000000 
0.018678 0.959160 0.000639 -2.496946 -7.653851 5.161698 2.957696 -0.196942 -2.494513 -0.835475 0.085213 0.865566 9.424063 19.292361 8.330144 0.000000 0.000000 0.000000 -5.759819 2.096217 -26.991695 3.160531 0.213341 17.821261 -2.864728 -11.657978 12.652717 0.000000 0.000000 0.000000 2.098096 -0.268584 3.700247 2.356270 -0.846741 -7.895954 -3.550391 -2.007661 9.933389 10.093478 -6.665586 -10.504683 0.000000 0.000000 0.000000 1.091232 -13.726851 4.850539 -71.702083 -17.088982 3.364030 -10.806276 -21.025685 2.968605 0.000000 0.000000 0.000000 -1.786500 5.887443 2.095104 77.156301 1.697401 -8.843015 4.442422 24.117197 1.526861 0.000000 0.000000 0.000000 
0.009962 0.957132 0.009591 -2.978967 -12.038138 4.892854 2.704984 -0.008822 -0.131258 0.003350 -0.001035 0.124241 12.239176 23.947910 9.281911 0.000000 0.000000 0.000000 -6.170942 2.267791 -26.502513 3.854178 0.157246 16.141339 -5.166774 -16.662577 14.261669 0.000000 0.000000 0.000000 2.798698 -0.353409 4.616247 2.548022 -0.981877 -8.405485 -3.391070 -2.512040 10.532850 10.101894 -6.882442 -10.709891 0.000000 0.000000 0.000000 1.337552 -14.086262 5.035652 -71.898177 -18.800081 5.282668 -9.041051 -21.943508 2.811518 0.000000 0.000000 0.000000 -2.893312 5.144265 2.018210 77.845761 1.157598 -10.530245 5.049379 23.406222 1.476774 0.000000 0.000000 0.000000 
-0.004682 0.953210 0.021266 -3.561843 -16.277905 5.172174 3.711885 0.180029 1.920205 -0.145086 0.047088 -0.858019 13.673785 26.219020 10.232896 0.000000 0.000000 0.000000 -6.385173 2.448232 -26.028135 3.823476 0.189872 13.823465 -7.299683 -20.914721 15.947033 0.000000 0.000000 0.000000 3.350343 -0.380970 4.634179 2.889840 -1.199963 -7.607130 -3.508133 -2.322976 9.783795 10.815786 -7.408931 -10.832586 0.000000 0.000000 0.000000 1.483945 -15.083639 5.454265 -71.360186 -19.818341 6.431504 -8.492654 -23.400405 2.936507 0.000000 0.000000 0.000000 -2.887042 4.276654 1.799919 77.737934 -0.347584 -12.241552 4.771410 22.478801 1.259146 0.000000 0.000000 0.000000 
-0.026331 0.949005 0.034847 -3.785932 -19.731052 5.021323 4.097281 0.380876 3.909413 0.754472 -0.082536 -0.605587 16.099110 29.754427 12.265612 0.000000 0.000000 0.000000 -6.128790 2.558301 -25.079093 4.049232 0.129025 11.603079 -11.719745 -27.733248 18.892715 0.000000 0.000000 0.000000 3.579029 -0.444192 5.691840 3.492915 -1.458312 -8.243013 -3.911975 -2.960339 9.991881 10.764483 -7.503121 -11.139028 0.000000 0.000000 0.000000 1.577844 -15.335589 5.618827 -70.351839 -20.218687 7.052010 -6.824744 -24.653782 2.784176 0.000000 0.000000 0.000000 -2.822952 3.926858 1.725704 77.486047 -0.725011 -13.316794 4.612770 21.894951 1.086689 0.000000 0.000000 0.000000 
-0.055332 0.943116 0.049931 -4.151049 -23.493511 5.897057 5.113599 0.561302 5.437910 0.533554 -0.056203 -0.425091 18.216600 32.501615 14.393546 0.000000 0.000000 0.000000 -4.501981 3.101567 -25.853858 4.356243 0.157486 11.234979 -13.454399 -30.312070 19.212650 0.000000 0.000000 0.000000 3.829803 -0.398595 4.633791 3.366018 -1.464525 -7.686944 -4.448874 -2.502244 10.141012 11.298383 -7.877239 -11.623136 0.000000 0.000000 0.000000 2.392425 -15.683037 5.620895 -69.586536 -20.216060 7.315728 -6.208224 -25.333581 2.746252 0.000000 0.000000 0.000000 -2.380707 4.056589 1.682648 78.066479 -0.721425 -13.974134 3.917002 20.498684 0.851383 0.000000 0.000000 0.000000 
